<svg xmlns="http://www.w3.org/2000/svg" width="128" height="128" viewBox="0 0 128 128">
  <defs>
    <linearGradient id="grad" x1="0%" y1="0%" x2="100%" y2="100%">
      <stop offset="0%" style="stop-color:#667eea;stop-opacity:1" />
      <stop offset="100%" style="stop-color:#764ba2;stop-opacity:1" />
    </linearGradient>
  </defs>
  
  <!-- Background circle -->
  <circle cx="64" cy="64" r="60" fill="url(#grad)"/>
  
  <!-- Document icon -->
  <path d="M40 30 h35 l13 13 v45 a5 5 0 0 1 -5 5 h-43 a5 5 0 0 1 -5 -5 v-53 a5 5 0 0 1 5 -5 z" 
        fill="white" opacity="0.9"/>
  
  <!-- Corner fold -->
  <path d="M75 30 v13 h13 z" fill="#667eea" opacity="0.6"/>
  
  <!-- AI sparkle lines -->
  <circle cx="50" cy="55" r="2" fill="#764ba2"/>
  <circle cx="64" cy="50" r="2" fill="#764ba2"/>
  <circle cx="78" cy="55" r="2" fill="#764ba2"/>
  
  <!-- Text lines -->
  <rect x="50" y="65" width="28" height="3" rx="1.5" fill="#667eea" opacity="0.7"/>
  <rect x="50" y="73" width="22" height="3" rx="1.5" fill="#667eea" opacity="0.7"/>
  <rect x="50" y="81" width="25" height="3" rx="1.5" fill="#667eea" opacity="0.7"/>
</svg>
